<svg width="128" height="128" viewBox="0 0 128 128" fill="none" xmlns="http://www.w3.org/2000/svg">
<path d="M114.83 109.17L89.7949 84.14C97.0511 75.4286 100.669 64.255 99.8971 52.9437C99.1248 41.6324 94.0215 31.0543 85.6486 23.4099C77.2758 15.7655 66.2781 11.6433 54.9435 11.9009C43.6088 12.1585 32.8097 16.776 24.7928 24.7929C16.7759 32.8099 12.1584 43.6089 11.9008 54.9436C11.6432 66.2783 15.7654 77.2759 23.4098 85.6488C31.0542 94.0216 41.6323 99.125 52.9436 99.8972C64.2549 100.669 75.4284 97.0512 84.1399 89.795L109.17 114.83C109.542 115.202 109.983 115.496 110.468 115.698C110.954 115.899 111.474 116.002 112 116.002C112.526 116.002 113.046 115.899 113.532 115.698C114.017 115.496 114.458 115.202 114.83 114.83C115.202 114.458 115.496 114.017 115.697 113.532C115.899 113.046 116.002 112.526 116.002 112C116.002 111.474 115.899 110.954 115.697 110.468C115.496 109.983 115.202 109.542 114.83 109.17ZM19.9999 56C19.9999 48.8799 22.1113 41.9197 26.067 35.9995C30.0227 30.0793 35.6452 25.4651 42.2233 22.7404C48.8015 20.0156 56.0399 19.3027 63.0232 20.6918C70.0065 22.0808 76.4211 25.5095 81.4558 30.5442C86.4905 35.5789 89.9191 41.9935 91.3082 48.9768C92.6973 55.9601 91.9843 63.1985 89.2596 69.7766C86.5348 76.3548 81.9206 81.9772 76.0005 85.933C70.0803 89.8887 63.12 92 55.9999 92C46.4554 91.9895 37.3048 88.1932 30.5558 81.4442C23.8068 74.6952 20.0105 65.5446 19.9999 56Z" fill="#006241"/>
</svg>
